<?xml version="1.0" encoding="UTF-8"?>
<svg id="Layer_1" data-name="Layer 1" xmlns="http://www.w3.org/2000/svg" viewBox="0 0 610 159.11">
  <defs>
    <style>
      .cls-1 {
        fill: #d9b9c3;
      }
    </style>
  </defs>
  <path class="cls-1" d="m95.24,1.14H9.82C4.4,1.14,0,5.54,0,10.96s4.4,9.82,9.82,9.82h85.42c5.41,0,9.82-4.4,9.82-9.82s-4.4-9.82-9.82-9.82Z"/>
  <path class="cls-1" d="m95.24,68.95H9.82c-5.41,0-9.82,4.4-9.82,9.82s4.4,9.82,9.82,9.82h85.42c5.41,0,9.82-4.4,9.82-9.82s-4.4-9.82-9.82-9.82Z"/>
  <path class="cls-1" d="m95.24,138.73H9.82c-5.41,0-9.82,4.4-9.82,9.82s4.4,9.82,9.82,9.82h85.42c5.41,0,9.82-4.4,9.82-9.82s-4.4-9.82-9.82-9.82Z"/>
  <path class="cls-1" d="m422.79,1.14h-85.42c-5.41,0-9.82,4.4-9.82,9.82s4.4,9.82,9.82,9.82h85.42c5.41,0,9.82-4.4,9.82-9.82s-4.4-9.82-9.82-9.82Z"/>
  <path class="cls-1" d="m422.79,68.95h-85.42c-5.41,0-9.82,4.4-9.82,9.82s4.4,9.82,9.82,9.82h85.42c5.41,0,9.82-4.4,9.82-9.82s-4.4-9.82-9.82-9.82Z"/>
  <path class="cls-1" d="m422.79,138.73h-85.42c-5.41,0-9.82,4.4-9.82,9.82s4.4,9.82,9.82,9.82h85.42c5.41,0,9.82-4.4,9.82-9.82s-4.4-9.82-9.82-9.82Z"/>
  <path class="cls-1" d="m279.06,55.55c0-30.1-24.49-54.6-54.6-54.6h-56.27c-5.41,0-9.82,4.4-9.82,9.82s4.4,9.82,9.82,9.82h56.27c19.28,0,34.96,15.71,34.96,35.03s-15.68,34.96-34.96,34.96h-53.38c-7.01,0-12.71,5.7-12.71,12.71v45.26c0,5.41,4.4,9.82,9.82,9.82s9.82-4.4,9.82-9.82v-38.34h46.45c1.16,0,2.34-.04,3.55-.12l31.94,44.21c1.84,2.55,4.82,4.07,7.96,4.07,2.07,0,4.06-.64,5.75-1.86,4.39-3.17,5.38-9.32,2.21-13.71l-27.52-38.1c18.61-9.07,30.72-28.07,30.72-49.15Z"/>
  <path class="cls-1" d="m600.18,76.25c-5.41,0-9.82,4.4-9.82,9.82v41.59c-10.63,7.64-23.66,11.82-36.94,11.82-34.16,0-61.95-26.88-61.95-59.92s27.79-59.92,61.95-59.92c14.52,0,28.63,4.95,39.74,13.95,1.74,1.41,3.94,2.19,6.18,2.19,2.98,0,5.76-1.33,7.63-3.64,1.65-2.04,2.41-4.6,2.13-7.21-.27-2.61-1.55-4.95-3.59-6.6-14.59-11.82-33.1-18.33-52.09-18.33-44.99,0-81.59,35.69-81.59,79.55s36.6,79.55,81.59,79.55c19.45,0,38.3-6.79,53.05-19.11l1.73-1.44c1.14-.95,1.79-2.36,1.79-3.84v-48.65c0-5.41-4.4-9.82-9.82-9.82Z"/>
</svg>